<svg width="32" height="32" viewBox="0 0 32 32" fill="none" xmlns="http://www.w3.org/2000/svg">
<rect width="32" height="32" rx="8" fill="white"/>
<path d="M17.2853 26C16.0498 26 15.0136 25.6285 14.1766 24.8854C13.3596 24.1218 12.9511 22.9866 12.9511 21.4799V12.2539H10.7391L10.5 12.0062V11.3251L16.1495 6H16.6576L16.8967 6.24768V10.2724H20.663L20.9022 10.5201V12.0062L20.663 12.2539H16.8967V21.7585C16.8967 22.3777 17.0562 22.8524 17.375 23.1827C17.6938 23.4923 18.1024 23.6471 18.6005 23.6471C19.4375 23.6471 20.0851 23.193 20.5435 22.2848L20.7826 22.1919L21.3804 22.4396L21.5 22.6873C20.8025 24.8958 19.3976 26 17.2853 26Z" fill="black"/>
</svg>
